# xmcd
#
# Track frame offsets: 
#        150
#        25260
#        42003
#        59889
#        83668
#        106033
#        120408
#        136915
#
# Disc length: 2150 seconds
#
# Revision: 0
# Processed by: cddbd v1.5.2PL0 Copyright (c) Steve Scherf et al.
# Submitted via: ExactAudioCopy v1.3
#
DISCID=5e086408
DTITLE=Paul Lamb and The Detroit Breakdo - Fly In 4mation
DYEAR=2017
DGENRE=Modern Electric Blues, Blues Rock
TTITLE0=Fear Free (feat. Eric Gales)
TTITLE1=Drinkin' Rain
TTITLE2=And A Little Bit More (I Want It All)
TTITLE3=Shape To Shadow
TTITLE4=Brotherhoos Of The Misunderstood
TTITLE5=One More Shot
TTITLE6=My Name (feat. Joanne Shaw Taylor)
TTITLE7=Living Words
EXTD=
EXTT0=
EXTT1=
EXTT2=
EXTT3=
EXTT4=
EXTT5=
EXTT6=
EXTT7=
PLAYORDER=
